<?xml version="1.0" standalone="no"?>
<svg xmlns="http://www.w3.org/2000/svg" viewBox="0 0 164.137 36" width="164.137" height="36"><g fill="#eb1b08" color="#eb1b08" transform="translate(0 3.9999999999999982) scale(0.2800001)"><svg width="100.0" height="100.0" x="0.0" y="0.0" viewBox="0 0 100 100"><path d="M52.1,84.4v8.1h12.2c1.2,0,2.1,1,2.1,2.1s-1,2.1-2.1,2.1H35.7c-1.2,0-2.1-1-2.1-2.1s1-2.1,2.1-2.1h12.2v-8.1H18.7  c-2.3,0-4.2-1.9-4.2-4.2V39.9c0-2.3,1.9-4.2,4.2-4.2H33c1.2,0,2.1,1,2.1,2.1s-1,2.1-2.1,2.1H18.7l0,17.6v22.7l31.2,0c0,0,0,0,0.1,0  c0,0,0,0,0.1,0l31.2,0l0-40.3l-14.2,0c-1.2,0-2.1-1-2.1-2.1s1-2.1,2.1-2.1h14.3c2.3,0,4.2,1.9,4.2,4.2v40.3c0,2.3-1.9,4.2-4.2,4.2  H52.1z M50.2,3.3c3.5,0.1,6.3,3,6.2,6.5c-0.1,2.7-1.8,5-4.2,5.8v52.9c0,1.2-1,2.1-2.1,2.1c-1.2,0-2.1-1-2.1-2.1V15.6  c-0.9-0.3-1.8-0.9-2.5-1.6c-1.2-1.2-1.8-2.8-1.8-4.5c0.1-3.4,2.9-6.2,6.4-6.2L50.2,3.3z M50.1,7.5L50.1,7.5c-1.2,0-2.1,0.9-2.2,2.1  c0,0.6,0.2,1.1,0.6,1.5c0.4,0.4,0.9,0.6,1.5,0.7l0.1,0c1.1,0,2.1-0.9,2.1-2.1C52.1,8.5,51.2,7.6,50.1,7.5z M57.2,58.6V25.9  c0-3.8,3.1-6.9,6.9-6.9h4.8c0.9-2.5,3.2-4.2,6-4.2c3.5,0,6.4,2.9,6.4,6.4s-2.9,6.4-6.4,6.4c-2.8,0-5.1-1.8-6-4.2h-4.8  c-1.5,0-2.6,1.2-2.6,2.6v32.7c0,1.2-1,2.1-2.1,2.1C58.2,60.8,57.2,59.8,57.2,58.6z M72.8,21.2c0,1.2,0.9,2.1,2.1,2.1  c1.2,0,2.1-0.9,2.1-2.1S76.1,19,74.9,19C73.7,19,72.8,20,72.8,21.2z M38.5,58.6V25.9c0-1.5-1.2-2.6-2.6-2.6h-4.8  c-0.9,2.5-3.2,4.2-6,4.2c-3.5,0-6.4-2.9-6.4-6.4s2.9-6.4,6.4-6.4c2.8,0,5.1,1.8,6,4.2h4.8c3.8,0,6.9,3.1,6.9,6.9v32.7  c0,1.2-1,2.1-2.1,2.1S38.5,59.8,38.5,58.6z M27.2,21.2c0-1.2-0.9-2.1-2.1-2.1S23,20,23,21.2s0.9,2.1,2.1,2.1S27.2,22.3,27.2,21.2z"></path></svg></g><path fill="#0f7abe" fill-rule="nonzero" d="M12.89 10.32L12.89 10.32L12.91 12.17Q12.82 13.92 12.48 15.12Q12.14 16.32 11.16 17.30L11.16 17.30Q9.53 18.94 6.41 18.94L6.41 18.94Q2.74 18.94 1.37 17.96Q0 16.99 0 14.45L0 14.45L0 1.85L6.65 1.85Q9.53 1.85 11.16 3.48L11.16 3.48Q12.48 4.80 12.72 6.70L12.72 6.70Q12.89 8.04 12.89 10.32ZM8.83 14.90Q9.29 14.35 9.42 13.38Q9.55 12.41 9.55 10.34Q9.55 8.28 9.42 7.36Q9.29 6.43 8.83 5.88L8.83 5.88Q7.97 4.82 6.34 4.82L6.34 4.82L3.34 4.82L3.34 14.28Q3.34 15.24 3.98 15.60Q4.63 15.96 6.30 15.96Q7.97 15.96 8.83 14.90L8.83 14.90ZM17.16 0Q18.29 0 18.62 0.35Q18.96 0.70 18.96 1.81Q18.96 2.93 18.61 3.28Q18.26 3.62 17.15 3.62Q16.03 3.62 15.68 3.26Q15.34 2.90 15.34 1.80Q15.34 0.70 15.68 0.35Q16.03 0 17.16 0ZM18.70 5.74L18.70 18.94L15.58 18.94L15.58 5.74L18.70 5.74ZM28.87 5.23L32.16 5.23L27.58 18.94L25.13 18.94L20.52 5.23L23.81 5.23L26.35 14.16L28.87 5.23ZM43.42 15.14L43.42 15.14L43.42 15.50Q43.27 17.30 41.89 18.22Q40.51 19.13 38.45 19.13L38.45 19.13Q35.40 19.13 34.18 18.02L34.18 18.02Q33.05 17.02 33.05 15.05L33.05 15.05L33.05 14.76L35.88 14.76Q35.88 15.86 36.46 16.27Q37.03 16.68 38.45 16.68L38.45 16.68Q40.37 16.68 40.37 15.29L40.37 15.29Q40.37 14.14 39.70 13.75L39.70 13.75Q39.38 13.56 38.90 13.46L38.90 13.46L36.48 13.06Q33.31 12.55 33.31 9.10L33.31 9.10Q33.31 7.18 34.72 6.11Q36.12 5.04 38.28 5.04L38.28 5.04Q43.20 5.04 43.20 9.29L43.20 9.29L43.20 9.60L40.49 9.60Q40.44 8.47 39.89 8.06Q39.34 7.66 38.34 7.66Q37.34 7.66 36.84 8.05Q36.34 8.45 36.34 8.93L36.34 8.93Q36.34 10.30 37.44 10.49L37.44 10.49L40.34 11.02Q43.42 11.59 43.42 15.14ZM58.61 13.92L58.61 13.92L61.44 13.90Q61.42 14.09 61.39 14.59Q61.37 15.10 61.36 15.28Q61.34 15.46 61.30 15.84Q61.25 16.22 61.19 16.40Q61.13 16.58 61.03 16.87L61.03 16.87Q60.60 18.12 58.68 18.84L58.68 18.84Q57.46 19.27 56.12 19.27Q54.79 19.27 53.71 18.84Q52.63 18.41 52.01 17.74L52.01 17.74Q50.59 16.25 50.59 12.16Q50.59 8.06 52.01 6.58L52.01 6.58Q52.63 5.90 53.71 5.47Q54.79 5.04 56.11 5.04L56.11 5.04Q58.70 5.04 60.05 6.34Q61.39 7.63 61.39 9.94L61.39 9.94L58.56 9.94Q58.56 8.88 58.03 8.36Q57.50 7.85 56.08 7.85Q54.65 7.85 54.18 8.74Q53.71 9.62 53.71 11.40L53.71 11.40L53.71 12.65Q53.71 15.50 54.82 16.15L54.82 16.15Q55.32 16.46 56.14 16.46Q56.95 16.46 57.47 16.31Q57.98 16.15 58.21 15.77Q58.44 15.38 58.51 15.01Q58.58 14.64 58.61 13.92ZM71.33 5.28L71.33 5.28L70.46 8.35Q70.10 8.21 69.65 8.21L69.65 8.21Q68.45 8.21 66.70 9.24L66.70 9.24L66.70 18.94L63.58 18.94L63.58 5.23L65.90 5.23L66.62 6.43L69.94 5.06Q70.18 5.04 70.58 5.04Q70.99 5.04 71.33 5.28ZM83.69 12.82L83.69 12.82L75.70 12.82Q75.70 14.69 76.28 15.55Q76.87 16.42 78.65 16.42L78.65 16.42Q79.80 16.42 80.35 15.68Q80.90 14.95 80.90 14.28L80.90 14.28L83.71 14.28Q83.71 16.85 82.33 18.05Q80.95 19.25 78.68 19.25Q76.42 19.25 75.17 18.60L75.17 18.60Q72.60 17.28 72.60 11.59L72.60 11.59Q72.60 8.21 74.06 6.64Q75.53 5.06 78.53 5.06L78.53 5.06Q83.74 5.06 83.74 10.85L83.74 10.85Q83.74 11.47 83.69 12.82ZM75.77 10.68L75.77 10.68L80.90 10.68Q80.90 9.10 80.30 8.38Q79.70 7.66 78.47 7.66Q77.23 7.66 76.50 8.39Q75.77 9.12 75.77 10.68ZM96 5.14L96 18.94L93.91 18.94L92.95 17.28L89.62 19.08Q86.83 19.08 85.87 17.06L85.87 17.06Q85.39 16.08 85.21 14.94Q85.03 13.80 85.03 12.56Q85.03 11.33 85.06 10.74Q85.08 10.15 85.18 9.37Q85.27 8.59 85.45 8.06Q85.63 7.54 85.97 6.97Q86.30 6.41 86.78 6.07L86.78 6.07Q87.86 5.33 89.59 5.33L89.59 5.33L92.88 5.33L96 5.14ZM90.50 15.79L92.88 14.57L92.88 8.14L90.50 8.14Q89.18 8.14 88.67 9.14Q88.15 10.15 88.15 12.16Q88.15 14.16 88.64 14.98Q89.14 15.79 90.50 15.79L90.50 15.79ZM105.24 16.30L105.24 18.94L103.30 18.94Q101.52 18.94 100.60 17.88Q99.67 16.82 99.67 15.36L99.67 15.36L99.67 8.16L98.35 8.16L98.35 5.78L99.67 5.78L99.67 3.10L102.79 3.10L102.79 5.78L105 5.78L105 8.16L102.79 8.16L102.79 15.17Q102.79 16.30 103.87 16.30L103.87 16.30L105.24 16.30ZM115.25 12.74L115.25 12.74L115.25 11.50Q115.25 9.72 114.73 8.78Q114.22 7.85 112.58 7.85L112.58 7.85Q109.94 7.85 109.94 11.40L109.94 11.40L109.94 12.65Q109.94 16.46 112.58 16.46L112.58 16.46Q114.29 16.46 114.82 15.19L114.82 15.19Q115.25 14.18 115.25 12.74ZM118.37 12.02L118.37 12.02Q118.37 16.46 116.69 17.98L116.69 17.98Q115.27 19.27 112.58 19.27L112.58 19.27Q109.15 19.27 107.95 17.26L107.95 17.26Q106.82 15.41 106.82 12.02L106.82 12.02Q106.82 8.86 107.95 7.06L107.95 7.06Q109.20 5.04 112.50 5.04Q115.80 5.04 117.08 6.80Q118.37 8.57 118.37 12.02ZM128.14 5.28L128.14 5.28L127.27 8.35Q126.91 8.21 126.46 8.21L126.46 8.21Q125.26 8.21 123.50 9.24L123.50 9.24L123.50 18.94L120.38 18.94L120.38 5.23L122.71 5.23L123.43 6.43L126.74 5.06Q126.98 5.04 127.39 5.04Q127.80 5.04 128.14 5.28Z" transform="translate(36, 8.532)"></path></svg>